<?xml version="1.0" standalone="no"?>
<!DOCTYPE svg PUBLIC "-//W3C//DTD SVG 20010904//EN"
 "http://www.w3.org/TR/2001/REC-SVG-20010904/DTD/svg10.dtd">
<svg version="1.0" xmlns="http://www.w3.org/2000/svg"
 width="171.000000pt" height="51.000000pt" viewBox="0 0 171.000000 51.000000"
 preserveAspectRatio="xMidYMid meet">

<g transform="translate(0.000000,51.000000) scale(0.100000,-0.100000)"
fill="#FFFFFF" stroke="FFFFFF">
<path d="M214 493 c-17 -54 -39 -89 -84 -130 -74 -68 -94 -157 -52 -239 24
-48 47 -69 95 -89 130 -54 283 58 264 195 -6 46 -35 110 -54 117 -7 3 -22 -5
-33 -18 l-19 -24 -1 33 c0 60 -44 137 -93 163 -13 8 -19 6 -23 -8z m68 -240
c22 -20 23 -61 1 -85 -34 -38 -103 -11 -103 40 0 54 62 81 102 45z"/>
</g>
</svg>
